<?xml version="1.0" encoding="UTF-8"?><svg id="Layer_1" xmlns="http://www.w3.org/2000/svg" viewBox="0 0 360 360"><defs><style>.cls-1{fill:none;}.cls-2{fill:#000;}@media (prefers-color-scheme:dark) {.cls-1{fill:none;}.cls-2{fill:#fff;}}</style></defs><g><path class="cls-2" d="M88.36279,277.47559h4.55127l4.80664,11.72656h.20459l4.80664-11.72656h4.55127v17.4541h-3.57959v-11.36035h-.14502l-4.51709,11.27539h-2.4375l-4.5166-11.31836h-.14502v11.40332h-3.57959v-17.4541Z"/><path class="cls-2" d="M115.68359,295.18555c-1.32422,0-2.46729-.2832-3.43066-.84863-.96289-.56445-1.70605-1.35449-2.22852-2.36914-.52295-1.01367-.78418-2.19141-.78418-3.53223,0-1.35254,.26123-2.53613,.78418-3.5498,.52246-1.01465,1.26562-1.80371,2.22852-2.36914,.96338-.56543,2.10645-.84863,3.43066-.84863,1.32373,0,2.46729,.2832,3.43018,.84863,.96338,.56543,1.70605,1.35449,2.229,2.36914,.52246,1.01367,.78369,2.19727,.78369,3.5498,0,1.34082-.26123,2.51855-.78369,3.53223-.52295,1.01465-1.26562,1.80469-2.229,2.36914-.96289,.56543-2.10645,.84863-3.43018,.84863Zm.01709-2.8125c.60205,0,1.10498-.17188,1.5083-.51562s.70898-.81445,.91602-1.41113c.20752-.5957,.31152-1.27539,.31152-2.03613,0-.76172-.104-1.44043-.31152-2.03711-.20703-.59668-.5127-1.06836-.91602-1.41504s-.90625-.51953-1.5083-.51953c-.6084,0-1.11816,.17285-1.52979,.51953-.41211,.34668-.72168,.81836-.9292,1.41504s-.31104,1.27539-.31104,2.03711c0,.76074,.10352,1.44043,.31104,2.03613,.20752,.59668,.51709,1.06738,.9292,1.41113,.41162,.34375,.92139,.51562,1.52979,.51562Z"/><path class="cls-2" d="M128.84033,295.14258c-.99463,0-1.89355-.25684-2.69775-.77148-.8042-.51367-1.44043-1.27246-1.90918-2.27539s-.70312-2.23438-.70312-3.69434c0-1.5,.2417-2.74902,.72461-3.74609s1.12646-1.74414,1.93018-2.24121c.8042-.49707,1.68604-.74609,2.64648-.74609,.73291,0,1.34521,.12402,1.83691,.37109,.49121,.24707,.88916,.55371,1.19287,.9209,.30371,.36621,.53613,.72559,.69434,1.07812h.11133v-6.5625h3.62207v17.4541h-3.58008v-2.09668h-.15332c-.16992,.36426-.41016,.72363-.71973,1.07812-.31006,.35547-.71045,.64941-1.20166,.88184-.4917,.2334-1.08984,.34961-1.79395,.34961Zm1.15039-2.88867c.58496,0,1.08105-.16113,1.4873-.48145,.40576-.32129,.71826-.77148,.93701-1.35156,.21875-.5791,.32812-1.25781,.32812-2.03711,0-.77832-.10742-1.4541-.32422-2.02832-.21484-.57324-.52734-1.0166-.93701-1.3291-.40869-.3125-.90625-.46875-1.49121-.46875-.59668,0-1.09961,.16211-1.50879,.48535-.40869,.32422-.71875,.77344-.92871,1.34668-.21045,.57422-.31543,1.23926-.31543,1.99414,0,.76172,.10645,1.43359,.31982,2.01562,.21289,.58301,.52246,1.03711,.92871,1.36426,.40625,.32617,.90771,.49023,1.50439,.49023Z"/><path class="cls-2" d="M144.74902,295.18555c-1.34668,0-2.50488-.27441-3.47363-.82227-.96875-.54883-1.71387-1.32715-2.2373-2.33594-.52246-1.00781-.7832-2.20312-.7832-3.58301,0-1.34668,.26074-2.52832,.7832-3.5459,.52344-1.0166,1.26074-1.80957,2.21191-2.37793,.95215-.56836,2.06934-.85254,3.35352-.85254,.86426,0,1.66895,.13867,2.41699,.41406,.74707,.27539,1.40039,.68848,1.95996,1.23926,.55957,.55176,.99512,1.24316,1.30762,2.07617,.3125,.83203,.46875,1.80469,.46875,2.91895v.99707h-11.05371v-2.25h7.63672c0-.52246-.11426-.98633-.34082-1.38965-.22754-.40332-.54102-.71973-.94238-.9502-.40039-.23047-.86426-.34473-1.39355-.34473-.55078,0-1.03809,.12598-1.46094,.37891-.42383,.25293-.75488,.59082-.99316,1.01465-.23828,.42285-.36133,.89355-.36621,1.41016v2.13867c0,.64844,.12012,1.20801,.3623,1.67969,.24121,.47168,.58301,.83496,1.02637,1.09082s.96875,.38379,1.57715,.38379c.40332,0,.77246-.05762,1.10742-.1709,.33594-.11328,.62207-.28418,.86133-.51172,.23828-.22656,.41992-.50488,.54492-.83496l3.3584,.22168c-.1709,.80664-.51855,1.50977-1.04395,2.10938s-1.20215,1.06543-2.02832,1.39746c-.82715,.33301-1.78027,.49902-2.85938,.49902Z"/><path class="cls-2" d="M156.27734,277.47559v17.4541h-3.62988v-17.4541h3.62988Z"/><path class="cls-2" d="M166.85645,294.92969h-3.9541l6.02539-17.4541h4.75586l6.0166,17.4541h-3.9541l-4.37207-13.46582h-.13672l-4.38086,13.46582Zm-.24707-6.86035h9.34082v2.87988h-9.34082v-2.87988Z"/><path class="cls-2" d="M189.41016,294.92969h-3.9541l6.02539-17.4541h4.75586l6.0166,17.4541h-3.9541l-4.37207-13.46582h-.13672l-4.38086,13.46582Zm-.24707-6.86035h9.34082v2.87988h-9.34082v-2.87988Z"/><path class="cls-2" d="M207.43262,287.36133v7.56836h-3.62988v-13.09082h3.45996v2.30957h.15332c.29004-.76172,.77539-1.36523,1.45703-1.81152,.68262-.44531,1.50879-.66895,2.48047-.66895,.90918,0,1.70117,.19922,2.37793,.59668,.67578,.39844,1.20117,.96484,1.57617,1.7002,.375,.73633,.5625,1.6123,.5625,2.62988v8.33496h-3.62988v-7.6875c.00488-.80078-.19922-1.42773-.61426-1.87891-.41504-.45215-.98535-.67773-1.71289-.67773-.48828,0-.91895,.10547-1.29102,.31543s-.66211,.51562-.86914,.91602c-.20801,.40039-.31445,.88184-.32031,1.44434Z"/><path class="cls-2" d="M221.97852,295.17676c-.83496,0-1.5791-.14648-2.23242-.43848-.6543-.29297-1.16992-.72754-1.54688-1.30469-.37793-.57617-.56738-1.29688-.56738-2.16016,0-.72754,.13379-1.33789,.40039-1.83203,.26758-.49512,.63086-.89258,1.0918-1.19336,.45996-.30078,.98438-.52832,1.57227-.68164s1.20605-.26172,1.85352-.32422c.76074-.0791,1.375-.1543,1.84082-.22559s.80371-.17773,1.01465-.32031c.20996-.1416,.31445-.35156,.31445-.62988v-.05176c0-.53906-.16895-.95703-.50684-1.25293-.33789-.29492-.81641-.44238-1.43555-.44238-.6543,0-1.17383,.14355-1.55957,.42969-.38672,.28711-.64258,.64648-.76758,1.07812l-3.35742-.27246c.16992-.79492,.50488-1.48438,1.00488-2.06641,.5-.58301,1.14648-1.03125,1.93945-1.34668,.79199-.31543,1.71094-.47363,2.75684-.47363,.72754,0,1.4248,.08594,2.09277,.25586,.66699,.1709,1.26074,.43457,1.78125,.79297,.51953,.35742,.92969,.81641,1.23145,1.37598,.30078,.55957,.45117,1.22949,.45117,2.00781v8.8291h-3.44336v-1.81543h-.10156c-.21094,.40918-.49219,.76855-.84375,1.07812-.35254,.30957-.77539,.55176-1.27051,.72461-.49414,.17285-1.06543,.25977-1.71289,.25977Zm1.04004-2.50586c.53418,0,1.00586-.10645,1.41504-.31934s.72949-.50098,.96289-.86523c.23242-.36328,.34961-.77539,.34961-1.23535v-1.38965c-.11426,.07422-.26855,.14062-.46484,.2002s-.41602,.11426-.66016,.16211c-.24512,.04883-.48926,.09082-.7334,.12793s-.46582,.06934-.66504,.09766c-.42578,.0625-.79785,.16211-1.11621,.29883-.31836,.13574-.56543,.31934-.74121,.5498-.17676,.22949-.26465,.51562-.26465,.85645,0,.49414,.18066,.87109,.54102,1.12891,.36133,.25879,.82031,.3877,1.37695,.3877Z"/><path class="cls-2" d="M231.69238,299.83887v-18h3.5791v2.19922h.16211c.15918-.35254,.39062-.71191,.69434-1.07812,.30371-.36719,.70215-.67383,1.19336-.9209s1.10352-.37109,1.83691-.37109c.9541,0,1.83496,.24902,2.6416,.74609s1.45215,1.24414,1.93457,2.24121c.4834,.99707,.72461,2.24609,.72461,3.74609,0,1.45996-.23438,2.69141-.70312,3.69434s-1.10547,1.76172-1.90918,2.27539c-.80371,.51465-1.70312,.77148-2.69727,.77148-.70508,0-1.30273-.11621-1.79395-.34961-.49121-.23242-.89355-.52637-1.20605-.88184-.3125-.35449-.55078-.71387-.71582-1.07812h-.11133v7.00586h-3.62988Zm3.55371-11.45508c0,.7793,.10742,1.45801,.32422,2.03711,.21582,.58008,.52832,1.03027,.9375,1.35156,.4082,.32031,.90527,.48145,1.49121,.48145,.59082,0,1.09082-.16406,1.5-.49023,.40918-.32715,.71973-.78125,.93262-1.36426,.21387-.58203,.32031-1.25391,.32031-2.01562,0-.75488-.10547-1.41992-.31543-1.99414-.21094-.57324-.52051-1.02246-.92871-1.34668-.40918-.32324-.91211-.48535-1.50879-.48535-.59082,0-1.08984,.15625-1.49609,.46875s-.7168,.75586-.93262,1.3291c-.2168,.57422-.32422,1.25-.32422,2.02832Z"/><path class="cls-2" d="M250.12305,295.17676c-.83496,0-1.5791-.14648-2.23242-.43848-.6543-.29297-1.16992-.72754-1.54688-1.30469-.37793-.57617-.56738-1.29688-.56738-2.16016,0-.72754,.13379-1.33789,.40039-1.83203,.26758-.49512,.63086-.89258,1.0918-1.19336,.45996-.30078,.98438-.52832,1.57227-.68164s1.20605-.26172,1.85352-.32422c.76074-.0791,1.375-.1543,1.84082-.22559s.80371-.17773,1.01465-.32031c.20996-.1416,.31445-.35156,.31445-.62988v-.05176c0-.53906-.16895-.95703-.50684-1.25293-.33789-.29492-.81641-.44238-1.43555-.44238-.6543,0-1.17383,.14355-1.55957,.42969-.38672,.28711-.64258,.64648-.76758,1.07812l-3.35742-.27246c.16992-.79492,.50488-1.48438,1.00488-2.06641,.5-.58301,1.14648-1.03125,1.93945-1.34668,.79199-.31543,1.71094-.47363,2.75684-.47363,.72754,0,1.4248,.08594,2.09277,.25586,.66699,.1709,1.26074,.43457,1.78125,.79297,.51953,.35742,.92969,.81641,1.23145,1.37598,.30078,.55957,.45117,1.22949,.45117,2.00781v8.8291h-3.44336v-1.81543h-.10156c-.21094,.40918-.49219,.76855-.84375,1.07812-.35254,.30957-.77539,.55176-1.27051,.72461-.49414,.17285-1.06543,.25977-1.71289,.25977Zm1.04004-2.50586c.53418,0,1.00586-.10645,1.41504-.31934s.72949-.50098,.96289-.86523c.23242-.36328,.34961-.77539,.34961-1.23535v-1.38965c-.11426,.07422-.26855,.14062-.46484,.2002s-.41602,.11426-.66016,.16211c-.24512,.04883-.48926,.09082-.7334,.12793s-.46582,.06934-.66504,.09766c-.42578,.0625-.79785,.16211-1.11621,.29883-.31836,.13574-.56543,.31934-.74121,.5498-.17676,.22949-.26465,.51562-.26465,.85645,0,.49414,.18066,.87109,.54102,1.12891,.36133,.25879,.82031,.3877,1.37695,.3877Z"/><path class="cls-2" d="M264.66016,295.14258c-.99414,0-1.89355-.25684-2.69727-.77148-.80371-.51367-1.44043-1.27246-1.90918-2.27539s-.70312-2.23438-.70312-3.69434c0-1.5,.24121-2.74902,.72461-3.74609,.48242-.99707,1.12598-1.74414,1.93066-2.24121,.80371-.49707,1.68555-.74609,2.64648-.74609,.73242,0,1.34473,.12402,1.83594,.37109s.88965,.55371,1.19336,.9209c.30371,.36621,.53516,.72559,.69434,1.07812h.11133v-6.5625h3.62207v17.4541h-3.58008v-2.09668h-.15332c-.16992,.36426-.41016,.72363-.71973,1.07812-.30957,.35547-.70996,.64941-1.20215,.88184-.49121,.2334-1.08887,.34961-1.79395,.34961Zm1.15039-2.88867c.58594,0,1.08105-.16113,1.4873-.48145,.40625-.32129,.71875-.77148,.9375-1.35156,.21875-.5791,.32812-1.25781,.32812-2.03711,0-.77832-.10742-1.4541-.32324-2.02832-.21582-.57324-.52832-1.0166-.9375-1.3291s-.90625-.46875-1.49219-.46875c-.5957,0-1.09863,.16211-1.50781,.48535-.40918,.32422-.71875,.77344-.92969,1.34668-.20996,.57422-.31445,1.23926-.31445,1.99414,0,.76172,.10645,1.43359,.31934,2.01562,.21289,.58301,.52246,1.03711,.92871,1.36426,.40625,.32617,.9082,.49023,1.50391,.49023Z"/></g><path class="cls-2" d="M337.45318,196.78668l11.05603,14.73999c4.20398,5.606,.20398,13.606-6.80298,13.606H21.3912c-7.008,0-11.008-8-6.80299-13.606l11.05501-14.73999H337.45318Z"/><path class="cls-2" d="M311.94219,83.40068c2.677,0,5.19702,1.26001,6.80304,3.40201l29.76398,39.685c4.20398,5.60599,.20398,13.60599-6.80298,13.60599H21.3912c-7.008,0-11.008-8-6.80299-13.60599l29.76299-39.685c1.60602-2.142,4.12701-3.40201,6.80402-3.40201H311.94219Z"/><path class="cls-2" d="M337.45318,154.26668l11.05603,14.741c4.20398,5.60602,.20398,13.60602-6.80298,13.60602H21.3912c-7.008,0-11.008-8-6.80299-13.60602l11.05501-14.741H337.45318Z"/><rect class="cls-1" width="360" height="360"/></svg>